<svg aria-hidden="true" style="position:absolute;width:0;height:0;overflow:hidden" xmlns="http://www.w3.org/2000/svg">
  <defs>
  <!-- Social icons -->
    <symbol id="email" viewBox="0 0 32 32">
      <path fill="#080341" style="fill:var(--color1, #080341)" d="M5 7h22l1 1v16l-1 1H5l-1-1V8l1-1zm1 3.261V23h20V10.26l-10 9.091L6 10.26zM24.413 9H7.586l8.413 7.649L24.412 9z"/>
    </symbol>
    <symbol id="github" viewBox="0 0 32 32">
      <path d="M16 0c8.837 0 16 7.344 16 16.405 0 7.246-4.579 13.394-10.933 15.565-.811.162-1.099-.35-1.099-.787 0-.541.019-2.307.019-4.502 0-1.53-.512-2.528-1.086-3.037 3.563-.406 7.307-1.794 7.307-8.094 0-1.792-.621-3.254-1.648-4.403.166-.414.715-2.083-.157-4.342 0 0-1.341-.44-4.395 1.682A15.023 15.023 0 0 0 16 7.935c-1.36.006-2.728.189-4.005.552-3.058-2.122-4.402-1.682-4.402-1.682-.869 2.259-.32 3.928-.155 4.342-1.022 1.149-1.648 2.611-1.648 4.403 0 6.285 3.736 7.693 7.29 8.107-.458.41-.872 1.133-1.016 2.194-.912.419-3.229 1.144-4.656-1.363 0 0-.846-1.576-2.453-1.691 0 0-1.56-.021-.109.997 0 0 1.048.504 1.776 2.4 0 0 .939 2.928 5.39 1.936.008 1.371.022 2.664.022 3.054 0 .434-.294.941-1.093.789C4.583 29.805-.001 23.655-.001 16.407c0-9.061 7.165-16.405 16-16.405z"/>
    </symbol>
    <symbol id="linkedin" viewBox="0 0 32 32">
      <path d="M0 0v32h32V0H0zm11.525 22.694H8.406v-9.981h3.119v9.981zM9.881 11.463h-.025c-1.131 0-1.862-.762-1.862-1.731 0-.988.756-1.731 1.906-1.731s1.856.744 1.881 1.731c.006.963-.725 1.731-1.9 1.731zM24 22.694h-3.538v-5.163c0-1.35-.55-2.275-1.769-2.275-.931 0-1.45.625-1.688 1.225-.087.212-.075.512-.075.819v5.394h-3.506s.044-9.15 0-9.981h3.506v1.569c.206-.688 1.325-1.662 3.113-1.662 2.219 0 3.956 1.438 3.956 4.525v5.55z"/>
    </symbol>
    <!-- Skills icons -->
    <symbol id="css3" viewBox="0 0 32 32">
      <path fill="#1172b8" style="fill:var(--color2, #1172b8)" d="M6 28 4 3h24l-2 25-10 3-10-3z"/>
      <path fill="#3ad" style="fill:var(--color3, #3ad)" d="M26 5H16v24.5l8-2.5 2-22z"/>
      <path fill="#fff" style="fill:var(--color4, #fff)" d="M19.5 17.5h-10L9 14l8-2.5H9l-.5-3H24l-.5 3.5-6.5 2.5h6L22 24l-6 2-6-2-.5-5h3l.5 2.5 3 1 3-1 .5-4z"/>
    </symbol>
    <symbol id="git" viewBox="0 0 32 32">
      <path fill="#ee513b" style="fill:var(--color5, #ee513b)" d="M2.585 17.413a1.999 1.999 0 0 1 0-2.826L14.586 2.586c.78-.78 2.046-.78 2.826 0l12.001 12.001c.78.78.78 2.046 0 2.826L17.412 29.414c-.78.78-2.046.78-2.826 0L2.585 17.413z"/>
      <path fill="#fff" style="fill:var(--color4, #fff)" d="m12.149 5.062-1.215 1.215 3.139 3.139a2.126 2.126 0 0 0 1.177 2.886v7.679a2.126 2.126 0 1 0 1.719.097v-7.765l3 3.001a2.124 2.124 0 1 0 1.283-1.148l-3.223-3.223a2.124 2.124 0 0 0-2.66-2.66l-3.221-3.221z"/>
    </symbol>
    <symbol id="html5" viewBox="0 0 32 32">
      <path fill="#e44d26" style="fill:var(--color6, #e44d26)" d="M6 28 4 3h24l-2 25-10 3-10-3z"/>
      <path fill="#f16529" style="fill:var(--color7, #f16529)" d="M26 5H16v24.5l8-2.5 2-22z"/>
      <path fill="#fff" style="fill:var(--color4, #fff)" d="M9.5 17.5 8.5 8H24l-.5 3h-12l.5 3.5h11L22 24l-6 2-6-2-.5-5h3l.5 2.5 3 1 3-1 .5-4h-10z"/>
    </symbol>
    <symbol id="js" viewBox="0 0 32 32">
      <path fill="#ffca28" style="fill:var(--color8, #ffca28)" d="M2 2h28v28H2V2z"/>
      <path fill="#3e3e3e" style="fill:var(--color9, #3e3e3e)" d="m19 25.288 2.061-1.364c.162.508 1.185 1.713 2.477 1.713s1.892-.706 1.892-1.174c0-1.275-1.32-1.725-1.953-1.941a3.432 3.432 0 0 1-.247-.09c-.03-.013-.075-.03-.133-.052-.705-.269-3.306-1.263-3.306-4.143 0-3.172 3.061-3.537 3.754-3.537.453 0 2.631.056 3.715 2.094l-2 1.396c-.438-.888-1.167-1.182-1.615-1.182-1.108 0-1.338.812-1.338 1.182 0 1.037 1.204 1.502 2.22 1.895.266.103.519.2.734.302 1.108.523 2.739 1.38 2.739 4.076C28 25.814 26.867 28 24.015 28c-3.831 0-4.846-2.3-5.015-2.712zM9 25.559l2.149-1.363c.168.507.823 1.443 1.772 1.443s1.435-.975 1.435-1.443v-9.195h2.643v9.195c.043 1.268-.661 3.805-3.765 3.805-2.854 0-4.041-1.696-4.233-2.442z"/>
    </symbol>
    <symbol id="nodejs" viewBox="0 0 32 32">
      <path fill="#539e43" style="fill:var(--color10, #539e43)" d="M15.819 25.756a.64.64 0 0 1-.303-.079l-.961-.571c-.144-.079-.072-.108-.029-.123.195-.065.231-.079.433-.195.022-.014.051-.007.072.007l.737.441c.029.014.065.014.087 0l2.882-1.669c.029-.014.043-.043.043-.079v-3.33c0-.036-.014-.065-.043-.079l-2.882-1.661c-.029-.014-.065-.014-.087 0l-2.882 1.661c-.029.014-.043.051-.043.079v3.33c0 .029.014.065.043.079l.787.455c.426.217.693-.036.693-.289v-3.287c0-.043.036-.087.087-.087h.368c.043 0 .087.036.087.087v3.287c0 .571-.311.903-.852.903-.166 0-.296 0-.665-.181l-.758-.433a.609.609 0 0 1-.303-.527v-3.33a.61.61 0 0 1 .303-.527l2.882-1.669a.646.646 0 0 1 .607 0l2.882 1.669a.609.609 0 0 1 .303.527v3.33a.61.61 0 0 1-.303.527l-2.882 1.669a.744.744 0 0 1-.303.065zm.889-2.29c-1.264 0-1.524-.578-1.524-1.069 0-.043.036-.087.087-.087h.376c.043 0 .079.029.079.072.058.383.224.571.99.571.607 0 .867-.137.867-.462 0-.188-.072-.325-1.018-.419-.787-.079-1.279-.253-1.279-.881 0-.585.491-.932 1.315-.932.925 0 1.38.318 1.437 1.011a.113.113 0 0 1-.022.065c-.014.014-.036.029-.058.029h-.376a.084.084 0 0 1-.079-.065c-.087-.397-.311-.527-.903-.527-.665 0-.744.231-.744.404 0 .209.094.274.99.39.889.116 1.307.282 1.307.903-.007.636-.527.997-1.445.997z"/>
      <path fill="#333" style="fill:var(--color11, #333)" d="M6.877 12.732a.367.367 0 0 0-.188-.318l-3.063-1.763a.458.458 0 0 0-.166-.051h-.029a.34.34 0 0 0-.166.051L.202 12.414a.367.367 0 0 0-.188.318l.007 4.739c0 .065.036.13.094.159.058.036.13.036.181 0l1.82-1.04a.367.367 0 0 0 .188-.318v-2.218c0-.13.072-.253.188-.318l.773-.448c.058-.036.123-.051.188-.051s.13.014.181.051l.773.448a.367.367 0 0 1 .188.318v2.218c0 .13.072.253.188.318l1.82 1.04c.058.036.13.036.188 0a.18.18 0 0 0 .094-.159l-.007-4.739zM21.598 6.209a.199.199 0 0 0-.181 0 .188.188 0 0 0-.094.159v4.695a.14.14 0 0 1-.065.116.136.136 0 0 1-.13 0l-.766-.441a.372.372 0 0 0-.368 0l-3.063 1.77a.367.367 0 0 0-.188.318v3.532c0 .13.072.253.188.318l3.063 1.77a.372.372 0 0 0 .368 0l3.063-1.77a.367.367 0 0 0 .188-.318V7.553a.37.37 0 0 0-.188-.325L21.597 6.21zm-.282 8.986c0 .036-.014.065-.043.079l-1.047.607a.11.11 0 0 1-.094 0l-1.047-.607c-.029-.014-.043-.051-.043-.079v-1.214c0-.036.014-.065.043-.079l1.047-.607a.11.11 0 0 1 .094 0l1.047.607c.029.014.043.051.043.079v1.214zM31.791 13.953a.36.36 0 0 0 .181-.318v-.86a.376.376 0 0 0-.181-.318l-3.041-1.763a.372.372 0 0 0-.368 0l-3.063 1.77a.367.367 0 0 0-.188.318v3.532c0 .13.072.253.188.318l3.041 1.734a.358.358 0 0 0 .361 0l1.842-1.026c.058-.029.094-.094.094-.159s-.036-.13-.094-.159l-3.077-1.77a.188.188 0 0 1-.094-.159v-1.105a.18.18 0 0 1 .094-.159l.961-.549a.177.177 0 0 1 .188 0l.961.549a.188.188 0 0 1 .094.159v.867c0 .065.036.13.094.159.058.036.13.036.188 0l1.82-1.062z"/>
      <path fill="#539e43" style="fill:var(--color10, #539e43)" d="M28.518 13.787a.067.067 0 0 1 .072 0l.585.339a.074.074 0 0 1 .036.065v.679a.074.074 0 0 1-.036.065l-.585.339a.067.067 0 0 1-.072 0l-.585-.339a.074.074 0 0 1-.036-.065v-.679c0-.029.014-.051.036-.065l.585-.339z"/>
      <path style="fill:var(--color12, #000)" d="M15.046 12.465 11.99 10.71a.518.518 0 0 0-.094-.036l-3.424 5.865a.393.393 0 0 0 .101.087l3.056 1.755a.35.35 0 0 0 .282.036l3.214-5.88a.384.384 0 0 0-.079-.072zM11.529 10.066l-.043.022h.058l-.014-.022z"/>
      <path style="fill:var(--color12, #000)" d="M15.054 16.618a.411.411 0 0 0 .181-.231l-3.352-5.721a.371.371 0 0 0-.26.043l-3.034 1.748 3.272 5.967a.517.517 0 0 0 .137-.043l3.056-1.763zM15.335 16.56l-.022-.036v.051l.022-.014z"/>
      <path style="fill:var(--color12, #000)" d="m15.054 16.618-3.048 1.755a.422.422 0 0 1-.137.043l.058.108 3.381-1.958v-.043l-.087-.144a.332.332 0 0 1-.166.238z"/>
      <path style="fill:var(--color12, #000)" d="m15.054 16.618-3.048 1.755a.422.422 0 0 1-.137.043l.058.108 3.381-1.958v-.043l-.087-.144a.332.332 0 0 1-.166.238z"/>
    </symbol>
    <symbol id="parcel" viewBox="0 0 32 32">
      <path style="fill:var(--color12, #000)" d="m17.564 27.854 8.782-5.554c.032-.02.075-.011.095.021s.011.075-.021.095l-8.811 5.571a.06.06 0 0 1-.036.011l-.009-.145z"/>
      <path style="fill:var(--color12, #000)" d="M17.573 27.999a.067.067 0 0 1-.024-.004L5.576 23.533c-.036-.014-.054-.052-.04-.089s.053-.054.089-.04l11.942 4.45.006.145z"/>
      <path fill="#e8b67f" style="fill:var(--color13, #e8b67f)" d="m30.138 6.664-1.382 2.289-5.862 2.492-4.991 4.667a.65.65 0 0 0-.172.31c-.005.026-.027.015-.049.014-.023-.001-.054.008-.056-.02-.003-.1-.014-.211-.175-.311l-4.325-2.802-9.437-2.42L.965 6.652l.041-.048.002-.004 10.225-2.657c.015-.005.018-.003.024.006l3.556 5.326c.075.11.082.178.082.226h.064V9.49l.001-.018.001-.012.002-.015.002-.016.014-.057.005-.018c.006-.02.012-.041.02-.061l.01-.024a.724.724 0 0 1 .061-.118l3.144-4.572c.008-.011.011-.016.027-.014l11.871 2.042.02.056z"/>
      <path style="fill:var(--color12, #000)" d="M14.948 14.483h-.001l-1.822-1.181-5.137-1.317 6.907-2.484.019-.036v.036z"/>
      <path style="fill:var(--color12, #000)" d="m14.894 9.501-6.907 2.482-4.3-1.104L.963 6.648l.044-.051L11.232 3.94c.015-.005.018-.003.024.006l3.556 5.326c.075.113.082.18.082.229z"/>
      <path style="fill:var(--color12, #000)" d="m14.919 9.765-6.531 2.347-1.019-.261 7.378-2.652.069.102c.075.11.082.178.082.226h.019l.001.238z"/>
      <path fill="#d2a679" style="fill:var(--color14, #d2a679)" d="m3.781 10.905-.092-.024L.965 6.65l.041-.048z"/>
      <path style="fill:var(--color12, #000)" d="m23.202 11.314-.309.131-4.991 4.667a.65.65 0 0 0-.172.31c-.005.026-.027.015-.049.014-.023-.001-.054.008-.056-.02-.003-.1-.014-.211-.175-.311l-2.501-1.621-.034-4.981v-.036l.046.036 8.241 1.811z"/>
      <path style="fill:var(--color12, #000)" d="m30.138 6.664-1.382 2.289-5.552 2.36-8.243-1.811a.773.773 0 0 1 .116-.351l3.144-4.572c.008-.011.011-.016.027-.014l11.871 2.042.02.058z"/>
      <path style="fill:var(--color12, #000)" d="m23.7 11.101-.806.342-.104.1-7.877-1.741.036-.303h.01a.773.773 0 0 1 .086-.301L23.7 11.1z"/>
      <path style="fill:var(--color12, #000)" opacity=".75" d="M15.132 9.539v5.064l-.184-.119h-.001l-.241-.158V9.569l.189-.068h.064z"/>
      <path fill="#bf9064" style="fill:var(--color15, #bf9064)" d="M17.524 27.918 5.541 23.447c-.067-.029-.077-.093-.081-.171l-.516-10.213c-.001-.026.031-.043.029-.059a.7.7 0 0 0-.106-.2L.001 10.039l.041-.094 13.083 3.357 4.324 2.801c.161.1.174.211.175.311.001.027.034.019.056.02s.044.012.049-.014a.644.644 0 0 1 .172-.309l4.991-4.667 9.051-3.847.055.076-4.886 4.294c-.095.095-.139.211-.12.259l-.5 10.008c-.008.064-.038.082-.101.126l-8.76 5.545c-.035.023-.073.029-.106.012z"/>
      <path fill="#bd8f63" style="fill:var(--color16, #bd8f63)" d="m17.679 16.435-.086 11.488a.105.105 0 0 1-.07-.005L5.54 23.448c-.067-.029-.077-.094-.081-.171l-.516-10.213v-.002l.001-.008c0-.002.001-.004.003-.005l.004-.006.004-.006c.005-.008.013-.015.015-.021l.001-.004v-.001l12.654 3.41c.005.023.035.014.055.015z"/>
      <path style="fill:var(--color12, #000)" opacity=".54" d="M17.594 27.889v.032a.105.105 0 0 1-.07-.005l-11.983-4.47c-.048-.02-.066-.059-.075-.106l12.128 4.549z"/>
      <path fill="#322214" style="fill:var(--color17, #322214)" d="m12.176 20.921 4.64 1.517-.011 4.525-4.554-1.672-.075-4.37zm2.325 3.04.011 2.096 2.247.826v-2.137l-2.259-.785zm.664.677.454.723.445-.39.077.088-.459.402.46.732-.067.042-.453-.722-.443.388-.077-.088.457-.4-.461-.733.067-.042zm1.337.814v.206l.119.039v.233l-.119-.047v.188l-.26-.395.26-.223zm-.4-.252.091.029v.824l-.091-.032v-.82zm-3.835-2.016.034 2.064 2.147.785-.012-2.091-2.169-.757zm3.357 2.46.235.379-.469-.17.234-.209zm.363-.347v.537l-.244-.344.244-.194zm-.93-.479.09.03v.822l-.09-.031v-.821zm.202.221.232.359-.232.179v-.537zm-1.942-.996.089.029v.053c.264.106.525.371.651.783-.082-.139-.155-.165-.284-.121-.047-.099-.188-.151-.271-.099a.242.242 0 0 0-.093-.097l.004.785c0 .073-.05.137-.174.113-.113-.027-.159-.114-.146-.261l.063.01c0 .099.008.155.082.172.064.015.092-.009.092-.067l-.008-.778a.12.12 0 0 0-.092.027c-.029-.073-.165-.17-.268-.098-.072-.115-.209-.159-.285-.075.097-.294.362-.398.639-.323v-.052zm1.422.766.254.4-.251.209.005-.196-.123-.029v-.227l.115.043v-.199zm.644.086.475.172-.238.209-.238-.381zm-.886-3.149.005 2.137 2.259.787v-2.184l-2.264-.741zm.421 1.846 1.35.461v.269l-1.35-.465v-.265zm-1.167.508.005.001c.009.009.009.102-.02.124-.014.006-.035.008-.053-.006s-.027-.034-.02-.064c.008-.03.082-.063.092-.054l-.005-.001zm.125-.213.005.001c.01.009.01.102-.02.124-.014.006-.035.008-.053-.006s-.027-.034-.02-.064c.008-.03.082-.063.092-.054l-.005-.001zm-.35-.009.005.001c.01.009.01.102-.02.124-.014.006-.035.008-.053-.006s-.027-.034-.02-.064c.008-.03.082-.063.092-.054l-.005-.001zm-.354-.051.005.001c.01.009.01.102-.02.124-.014.006-.035.008-.053-.006s-.027-.034-.02-.064c.008-.03.082-.063.092-.054l-.005-.001zm2.789-1.404.328.646-.224-.076v.936l-.224-.078.001-.929-.223-.073.341-.427zm-3.736-1.422.039 2.109 2.174.747-.019-2.136-2.194-.72zm2.997 1.176.328.646-.224-.076v.936l-.224-.078.002-.929-.224-.073.341-.427zm-2.511-.753.178.059.082.299-.092-.006.264.637-.136-.525.078-.001-.079-.366.916.302v.504a.354.354 0 0 1-.5.313l.001.506.42.27-1.016-.352.409.02-.008-.501c-.29-.086-.5-.435-.5-.647l-.016-.51z"/>
      <path style="fill:var(--color12, #000)" d="M17.679 16.435c-.05.001-.087.067-.089.128l-.011.005-12.637-3.505c-.001-.024.026-.039.029-.054v-.004a.7.7 0 0 0-.106-.2L0 10.039l.041-.094 13.083 3.356 4.324 2.801c.161.101.174.211.175.311l.001.005c.005.024.035.015.055.016z"/>
      <path fill="#cd9c6b" style="fill:var(--color18, #cd9c6b)" d="M27.113 11.966c-.095.095-.139.211-.12.259L17.79 16.58l-.019-.015c-.001-.073-.047-.121-.082-.129.019.003.036.009.041-.015.003-.015.006-.032.012-.051a.713.713 0 0 1 .138-.235l.023-.024 4.991-4.667 9.051-3.847.055.076-4.887 4.294z"/>
      <path style="fill:var(--color12, #000)" d="M12 17.58c.014.004.019.005.019-.006l-.047-2.542c-.004-.086-.025-.256-.129-.325l-4.609-2.8-2.16-.557 4.684 2.799c.117.078.127.223.133.33l.068 2.472c0 .012.002.015.011.019l2.031.611z"/>
      <path fill="#d4a271" style="fill:var(--color19, #d4a271)" d="M17.679 16.435c-.051.001-.089.071-.089.133-.001.005-.01.004-.011 0-.01-.136-.066-.289-.14-.343l-4.359-2.81.043-.114h.001l4.324 2.801c.161.101.174.211.175.311l.001.005c.005.024.035.015.055.016z"/>
      <path fill="#deb37e" style="fill:var(--color20, #deb37e)" d="m13.123 13.302-.043.113-13.081-3.376.041-.092z"/>
      <path fill="#dbad77" style="fill:var(--color21, #dbad77)" d="m26.994 12.225-.5 10.008c-.008.064-.038.082-.101.126l-8.76 5.545a.103.103 0 0 1-.039.017l.086-11.488c.023.001.044.012.049-.014l.001-.01 9.261-4.196c0 .006.001.009.003.011z"/>
      <path style="fill:var(--color12, #000)" opacity=".54" d="M26.494 22.229v.005c-.008.064-.038.082-.101.126l-8.76 5.545a.103.103 0 0 1-.039.017v-.032l8.9-5.661z"/>
      <path fill="#322214" style="fill:var(--color17, #322214)" d="m26.33 17.875-.2 4.075-2.912 1.814.15-4.241 2.962-1.647zm-1.557 2.949-1.447.851-.069 2.006 1.441-.896.075-1.961zm-.691.862-.003.068c.173-.086.336-.026.405.26-.047-.066-.134-.04-.191.095-.026-.056-.16-.01-.18.108-.011-.019-.03-.026-.052-.024l-.032.774c-.003.066-.006.137-.09.189-.039.017-.141.031-.128-.113l.049-.038c-.004.091.02.119.07.089.06-.036.049-.094.051-.148l.027-.733a.178.178 0 0 0-.076.112c-.015-.045-.16-.017-.177.111-.041-.055-.154-.001-.196.137.078-.36.272-.659.465-.788l.002-.059.055-.04zm2.112-1.702-1.38.816-.076 1.966 1.365-.859.091-1.924zm-.426.663.04.038-.301.682.248.343-.04.085-.247-.339-.297.675-.041-.038.303-.686-.257-.351.045-.085.251.347.296-.671zm-.84.784.156.19-.166.358v-.157l-.07.043.004-.204.07-.041.006-.188zm.27-.248-.032.754-.056.038.031-.751.058-.04zm.264.394.134.176-.288.175.154-.351zm-1.532.055c.006 0 .003.086-.019.129-.008.015-.021.031-.032.032s-.016-.011-.01-.044a.385.385 0 0 1 .061-.117zm1.33-.346.133.164-.155.306.023-.47zm-.95.19a.287.287 0 0 1-.019.129c-.008.015-.021.031-.032.032s-.016-.011-.01-.044a.385.385 0 0 1 .061-.117zm.555-2.73-1.462.82-.076 2.046 1.451-.855.087-2.011zm.964 2.053-.035.752-.05.032.034-.751.051-.034zm-1.656.62c.006 0 .003.086-.019.129-.008.015-.021.031-.032.032s-.016-.011-.01-.044a.385.385 0 0 1 .061-.117zm1.527-.401-.02.48-.13-.155.15-.325zm.31-.229-.008.185.073-.04-.009.205-.07.041-.003.169-.151-.181.168-.379zm-1.603.383c.006 0 .003.086-.019.129-.008.015-.021.031-.032.032s-.016-.011-.01-.044a.385.385 0 0 1 .061-.117zm1.222-.29-.155.355-.134-.181.289-.174zm-1.104-1.701-.019.515c-.008.175-.148.492-.356.625l-.023.486.279-.06-.679.392.282-.269.015-.477c-.181.104-.326-.089-.317-.284l.016-.472.122-.066.04.227-.066.054.146.424-.056-.386.05-.058-.039-.304.604-.348zm1.775-1.233-1.4.782-.087 2.011 1.387-.83.1-1.964zm-.365 1.734-.017.239-.82.485.011-.241.826-.482zm-.58-1.031.181.383-.136.076-.041.859-.13.075.025-.859-.131.079.233-.612zm.455-.253.176.376-.145.081-.03.852-.139.078.044-.859-.136.078.23-.606z"/>
      <path fill="#d7aa77" style="fill:var(--color22, #d7aa77)" d="m22.967 11.542-4.949 4.6c-.14.134-.233.334-.229.437-.003.005-.015.009-.02 0 .006-.08-.045-.135-.082-.144.019.003.036.009.041-.015.003-.015.006-.032.012-.051a.716.716 0 0 1 .16-.257l4.991-4.667.075.098z"/>
      <path style="fill:var(--color12, #000)" d="M21.875 17.122c0 .014.006.02.015.016l1.486-.762c.003-.001.004-.004.005-.009l.082-2.436a.515.515 0 0 1 .18-.357l4.936-4.436-1.502.644-4.961 4.495a.567.567 0 0 0-.174.398l-.067 2.449z"/>
      <path fill="#f8ce93" style="fill:var(--color23, #f8ce93)" d="m22.967 11.542 9.032-3.87-.055-.075-9.051 3.846z"/>
    </symbol>
    <symbol id="react" viewBox="0 0 32 32">
      <path fill="#00d8ff" style="fill:var(--color24, #00d8ff)" d="M26.31 10.978a22.726 22.726 0 0 0-1.03-.325c.058-.238.112-.472.159-.703.78-3.785.27-6.834-1.471-7.838-1.669-.963-4.399.041-7.157 2.441-.265.231-.531.475-.797.731a21.355 21.355 0 0 0-.53-.49c-2.89-2.566-5.786-3.647-7.526-2.64-1.668.965-2.162 3.832-1.46 7.419.068.347.147.7.237 1.06-.41.116-.806.24-1.184.372-3.388 1.181-5.552 3.032-5.552 4.953 0 1.983 2.323 3.972 5.851 5.178.278.095.567.185.865.271-.097.389-.181.77-.251 1.142-.669 3.525-.147 6.324 1.517 7.283 1.718.991 4.601-.028 7.409-2.482.222-.194.445-.4.668-.615.289.278.578.542.865.789 2.72 2.34 5.406 3.285 7.067 2.323 1.716-.994 2.274-4 1.55-7.659-.055-.279-.12-.565-.192-.855.203-.06.401-.122.595-.186 3.668-1.215 6.055-3.18 6.055-5.19 0-1.927-2.233-3.791-5.69-4.981zm-.795 8.873c-.175.058-.355.114-.537.168a32.226 32.226 0 0 0-1.62-4.054 31.987 31.987 0 0 0 1.557-3.995c.327.095.645.195.951.3 2.961 1.019 4.768 2.527 4.768 3.688 0 1.237-1.951 2.843-5.118 3.892zM24.2 22.455c.32 1.618.366 3.08.154 4.223-.191 1.027-.574 1.712-1.048 1.987-1.008.584-3.165-.175-5.491-2.176a18.94 18.94 0 0 1-.805-.734 32.018 32.018 0 0 0 2.682-3.406 31.917 31.917 0 0 0 4.334-.668c.065.263.123.522.173.774zm-13.29 6.109c-.985.348-1.77.358-2.244.084-1.009-.582-1.429-2.829-.857-5.844.066-.345.144-.7.234-1.062 1.311.29 2.762.498 4.312.624a33.29 33.29 0 0 0 2.747 3.394c-.204.197-.408.385-.61.561-1.242 1.085-2.486 1.855-3.582 2.242zm-4.616-8.721c-1.56-.533-2.849-1.226-3.732-1.983-.794-.68-1.194-1.355-1.194-1.902 0-1.165 1.737-2.651 4.635-3.662.352-.123.72-.238 1.101-.347.4 1.303.926 2.664 1.56 4.041a33.279 33.279 0 0 0-1.579 4.099 17.557 17.557 0 0 1-.79-.247zM7.841 9.311c-.601-3.073-.202-5.392.803-5.974 1.071-.62 3.438.264 5.933 2.479.159.142.32.29.48.443a32.785 32.785 0 0 0-2.726 3.373 33.316 33.316 0 0 0-4.27.664 20.384 20.384 0 0 1-.22-.986zm13.803 3.408a44.096 44.096 0 0 0-.973-1.6c1.021.129 1.999.3 2.918.51-.276.884-.62 1.808-1.024 2.755a45.778 45.778 0 0 0-.921-1.665zm-5.629-5.482a29.166 29.166 0 0 1 1.883 2.273 39.658 39.658 0 0 0-3.782-.001 30.278 30.278 0 0 1 1.899-2.272zm-5.665 5.492a39.385 39.385 0 0 0-.903 1.655 30.188 30.188 0 0 1-1.017-2.769 31.063 31.063 0 0 1 2.901-.498 39.906 39.906 0 0 0-.981 1.612zm1.01 8.169a29.038 29.038 0 0 1-2.949-.474c.283-.912.631-1.861 1.037-2.825a39.944 39.944 0 0 0 1.912 3.299zm4.693 3.879a30.563 30.563 0 0 1-1.925-2.304c.613.024 1.237.036 1.872.036.652 0 1.297-.015 1.932-.043a28.942 28.942 0 0 1-1.879 2.311zm6.525-7.227c.428.975.788 1.918 1.075 2.815-.928.212-1.93.382-2.985.509.332-.526.66-1.07.982-1.628.326-.565.636-1.131.928-1.695zm-2.112 1.012a45.2 45.2 0 0 1-1.535 2.477c-.95.068-1.931.103-2.93.103-.996 0-1.964-.031-2.897-.091a38.863 38.863 0 0 1-1.564-2.481 38.192 38.192 0 0 1-1.365-2.578 38.57 38.57 0 0 1 1.361-2.58 38.086 38.086 0 0 1 1.552-2.47 38.73 38.73 0 0 1 5.833.001 41.189 41.189 0 0 1 1.542 2.462 44.92 44.92 0 0 1 1.38 2.567 40.97 40.97 0 0 1-1.375 2.59zm2.82-15.265c1.072.618 1.488 3.11.815 6.378-.043.209-.091.421-.144.636a32.869 32.869 0 0 0-4.279-.676 32.09 32.09 0 0 0-2.705-3.376c.246-.237.491-.462.736-.675 2.362-2.056 4.57-2.868 5.576-2.288zM16 13.101a2.858 2.858 0 1 1 0 5.713 2.858 2.858 0 0 1 0-5.712z"/>
    </symbol>
    <symbol id="redux" viewBox="0 0 32 32">
      <path fill="#764abc" style="fill:var(--color25, #764abc)" d="M21.787 21.556c1.107-.113 1.947-1.051 1.909-2.177s-.993-2.027-2.138-2.027h-.076a2.114 2.114 0 0 0-2.061 2.177c.038.563.267 1.051.611 1.389-1.298 2.515-3.283 4.354-6.261 5.893-2.023 1.051-4.123 1.426-6.223 1.164-1.718-.225-3.054-.976-3.894-2.215-1.222-1.839-1.336-3.828-.305-5.818.725-1.426 1.871-2.477 2.596-3.003a19.774 19.774 0 0 1-.496-1.914C-.087 18.966.486 24.296 2.166 26.81c1.26 1.877 3.818 3.04 6.643 3.04.763 0 1.527-.075 2.291-.263 4.887-.938 8.59-3.791 10.689-8.032zm6.719-4.654c-2.901-3.341-7.177-5.18-12.064-5.18h-.611a2.102 2.102 0 0 0-1.871-1.126h-.076a2.115 2.115 0 0 0-2.061 2.177c.038 1.126.992 2.027 2.138 2.027h.076a2.15 2.15 0 0 0 1.871-1.276h.687c2.901 0 5.65.826 8.132 2.44 1.909 1.239 3.283 2.853 4.047 4.804.649 1.576.611 3.115-.076 4.429-1.069 1.989-2.863 3.078-5.23 3.078-1.527 0-2.978-.45-3.741-.788a22.39 22.39 0 0 1-1.718 1.351c1.642.751 3.321 1.163 4.925 1.163 3.665 0 6.375-1.989 7.406-3.979 1.107-2.177 1.031-5.93-1.832-9.121zM9.112 22.194c.038 1.126.993 2.027 2.138 2.027h.076a2.114 2.114 0 0 0 2.061-2.177c-.038-1.126-.993-2.027-2.138-2.027h-.076c-.076 0-.191 0-.267.037-1.565-2.552-2.214-5.33-1.985-8.332.153-2.252.916-4.204 2.252-5.818 1.107-1.389 3.245-2.064 4.696-2.102 4.047-.075 5.764 4.879 5.879 6.869.496.113 1.336.375 1.909.563-.458-6.08-4.276-9.233-7.941-9.233-3.436 0-6.605 2.44-7.864 6.043-1.756 4.804-.611 9.421 1.527 13.062-.191.263-.305.676-.267 1.088z"/>
    </symbol>
    <symbol id="sass" viewBox="0 0 32 32">
      <path fill="#cd6799" style="fill:var(--color26, #cd6799)" d="M26.11 17.572a5.774 5.774 0 0 0-2.571.603l.034-.015a5.222 5.222 0 0 1-.559-1.276l-.009-.038a3.448 3.448 0 0 1-.049-1.117l-.002.016c.101-.473.215-.873.353-1.261l-.021.069c-.005-.051-.061-.292-.624-.3s-1.048.107-1.1.256a5.639 5.639 0 0 0-.228.794l-.007.04a19.6 19.6 0 0 1-1.759 3.369l.046-.075a3.152 3.152 0 0 1-.438-2.082l-.002.016c.101-.473.215-.873.353-1.261l-.021.069c-.005-.051-.061-.292-.624-.3s-1.048.107-1.1.256-.118.5-.235.834-1.483 3.386-1.841 4.173c-.184.4-.343.726-.455.946a.235.235 0 0 1-.021.042l.001-.001-.153.292v.005c-.077.138-.159.266-.2.266a1.708 1.708 0 0 1 .013-.881l-.003.012c.2-1.059.69-2.705.685-2.762 0-.031.092-.317-.317-.465a.507.507 0 0 0-.578.1c-.036 0-.061.087-.061.087s.445-1.851-.849-1.851a3.868 3.868 0 0 0-2.466 1.668l-.009.015c-.348.189-1.089.593-1.882 1.028-.3.169-.614.338-.905.5-.02-.02-.041-.046-.061-.066-1.575-1.678-4.47-2.862-4.345-5.107.046-.818.327-2.966 5.559-5.575 4.306-2.122 7.733-1.534 8.326-.23.849 1.862-1.836 5.319-6.285 5.82a3.339 3.339 0 0 1-2.818-.715l.005.004c-.235-.256-.271-.271-.358-.22-.143.077-.051.307 0 .44.344.614.91 1.069 1.588 1.259l.018.004a8.307 8.307 0 0 0 1.806.193 8.511 8.511 0 0 0 3.466-.732l-.055.022c2.7-1.043 4.8-3.943 4.184-6.372-.619-2.465-4.71-3.278-8.582-1.9-2.546.871-4.741 2.16-6.618 3.802l.023-.019c-2.133 1.995-2.47 3.728-2.332 4.455.5 2.578 4.051 4.255 5.472 5.5a8.554 8.554 0 0 1-.194.107c-.711.353-3.421 1.77-4.1 3.268-.767 1.7.123 2.915.711 3.079a4.37 4.37 0 0 0 4.699-1.891l.01-.017a4.682 4.682 0 0 0 .768-2.582c0-.638-.127-1.247-.356-1.803l.011.031a.11.11 0 0 0-.02-.031l.557-.327a27.2 27.2 0 0 1 1.028-.578 6.562 6.562 0 0 0-.362 1.845l-.001.017a3.87 3.87 0 0 0 .84 2.708l-.006-.008a.914.914 0 0 0 .679.22h-.003c.6 0 .875-.5 1.176-1.094.368-.726.7-1.57.7-1.57s-.414 2.281.711 2.281c.409 0 .823-.532 1.008-.8v.005l.031-.051.066-.107v-.01c.164-.286.532-.936 1.079-2.015.706-1.391 1.386-3.13 1.386-3.13.077.443.171.823.288 1.193l-.017-.063c.191.519.388.951.611 1.366l-.028-.057c-.164.23-.266.358-.266.358l.005.005c-.133.174-.276.363-.435.547a16.32 16.32 0 0 0-1.279 1.595l-.035.052a.446.446 0 0 0 .121.599l.001.001a1.105 1.105 0 0 0 .691.112l-.006.001a3.14 3.14 0 0 0 1.049-.243l-.021.008a3.46 3.46 0 0 0 .895-.472l-.01.007a1.98 1.98 0 0 0 .848-1.75v.006a3.496 3.496 0 0 0-.331-1.254l.009.021a22.608 22.608 0 0 0 1.621-2.73l.061-.134c.077.443.171.823.288 1.193l-.017-.063c.155.439.323.81.52 1.164l-.02-.039a4.9 4.9 0 0 0-1.485 1.891l-.012.031c-.322.931-.072 1.35.4 1.447a1.424 1.424 0 0 0 .755-.157l-.008.004c.361-.121.675-.285.955-.493l-.009.007a2.13 2.13 0 0 0 1.043-1.724v-.005a3.274 3.274 0 0 0-.243-1.045l.008.022a5.271 5.271 0 0 1 1.949-.367c.271 0 .537.02.796.059l-.029-.004c2.434.286 2.915 1.805 2.823 2.445a1.62 1.62 0 0 1-.765 1.09l-.007.004c-.169.107-.225.143-.21.22.02.113.1.107.245.087a1.905 1.905 0 0 0 1.332-1.684v-.006c.077-1.5-1.355-3.145-3.887-3.13zM7.33 23.9c-.808.88-1.933 1.212-2.419.931-.522-.3-.317-1.6.675-2.532a12.88 12.88 0 0 1 1.845-1.385l.055-.032c.118-.072.292-.174.5-.3l.056-.031.123-.077a3.482 3.482 0 0 1-.836 3.427l.001-.001zm5.881-4c-.281.685-.869 2.44-1.227 2.342-.307-.082-.5-1.412-.061-2.726a6.238 6.238 0 0 1 .966-1.768l-.01.014c.44-.491.926-.655 1.043-.455a9.05 9.05 0 0 1-.734 2.65l.023-.057zm4.853 2.322c-.118.061-.23.1-.281.072-.036-.02.051-.1.051-.1s.609-.655.849-.951c.138-.174.3-.378.476-.609v.066c0 .782-.757 1.309-1.094 1.524zm3.744-.854c-.087-.061-.072-.266.22-.905.212-.422.492-.779.83-1.07l.004-.004c.051.14.081.302.082.471v.018c0 .708-.475 1.305-1.124 1.488l-.011.003z"/>
    </symbol>
    <symbol id="ts" viewBox="0 0 32 32">
      <path fill="#007acc" style="fill:var(--color27, #007acc)" d="M0 16v16h32V0H0z"/>
      <path fill="#fff" style="fill:var(--color4, #fff)" d="m7.076 16.106-.01 1.31h4.165v11.835h2.946V17.416h4.165v-1.285c0-.711-.015-1.305-.036-1.321-.015-.02-2.55-.03-5.623-.025l-5.592.015-.015 1.305zM25.821 14.764a3.982 3.982 0 0 1 2.001 1.153c.295.315.731.889.767 1.026.01.041-1.382.975-2.225 1.498-.03.02-.152-.112-.29-.315-.411-.599-.843-.858-1.503-.904-.97-.066-1.595.442-1.59 1.29 0 .249.036.396.137.599.213.442.61.706 1.854 1.244 2.291.985 3.271 1.636 3.881 2.56.681 1.031.833 2.677.371 3.901-.508 1.331-1.768 2.235-3.54 2.535-.549.096-1.849.081-2.438-.025-1.285-.229-2.504-.863-3.256-1.697-.295-.325-.869-1.173-.833-1.234.015-.02.147-.102.295-.188.142-.081.681-.391 1.189-.686l.919-.533.193.284c.269.411.858.975 1.214 1.163 1.021.538 2.423.462 3.114-.157.295-.269.416-.549.416-.96 0-.371-.046-.533-.239-.813-.249-.356-.757-.655-2.199-1.28-1.651-.711-2.362-1.153-3.012-1.854a4.222 4.222 0 0 1-.879-1.6c-.122-.452-.152-1.585-.056-2.042.34-1.595 1.544-2.707 3.281-3.037.564-.107 1.874-.066 2.428.071z"/>
    </symbol>
    <symbol id="webpack" viewBox="0 0 32 32">
      <path fill="#fff" style="fill:var(--color4, #fff)" d="M6.575.438h18.849a6.137 6.137 0 0 1 6.137 6.137v18.849a6.137 6.137 0 0 1-6.137 6.137H6.575a6.137 6.137 0 0 1-6.137-6.137V6.575A6.137 6.137 0 0 1 6.575.438z"/>
      <path fill="#fff" style="fill:var(--color4, #fff)" d="M15.89 3.945 26.082 9.71v11.532L15.89 27.007 5.698 21.242V9.71z"/>
      <path fill="#8ed6fb" style="fill:var(--color28, #8ed6fb)" d="m24.262 20.844-8.035 4.545V21.85l5.006-2.755 3.029 1.749zm.55-.497v-9.504l-2.939 1.699v6.11l2.939 1.696zm-17.325.497 8.035 4.545V21.85l-5.009-2.755-3.026 1.749zm-.551-.497v-9.504l2.939 1.699v6.11l-2.939 1.696zm.345-10.121 8.24-4.661v3.421l-5.322 2.928-2.918-1.688zm17.186 0-8.24-4.661v3.421l5.322 2.926 2.918-1.685z"/>
      <path fill="#1c78c0" style="fill:var(--color29, #1c78c0)" d="m15.522 21.044-4.94-2.718v-5.38l4.94 2.852v5.246zm.705 0 4.94-2.715v-5.383l-4.94 2.852v5.246zm-5.311-8.719 4.959-2.726 4.959 2.726-4.959 2.863-4.959-2.863z"/>
    </symbol>
  </defs>
</svg>